# xmcd CD database file
#
# Track frame offsets:
#	150
#	21785
#	28665
#	46985
#	50347
#	52125
#	59805
#	67987
#	76185
#	87800
#	95730
#	101992
#	111320
#	117975
#	121580
#	124200
#	127425
#	132042
#	135965
#	140345
#	144885
#	152835
#	160707
#	164147
#	171197
#
# Disc length: 2360 seconds
#
# Revision: 2
# Processed by: cddbd v1.5.2PL0 Copyright (c) Steve Scherf et al.
# Submitted via: CDex 1.51
#
DISCID=68093619
DTITLE=Κώστας Χατζής - Θυμηθείτε μαζί μου 18 Χρόνια CD_1
DYEAR=1979
DGENRE=Έντεχνο
TTITLE0=Έφυγε η αγάπη μου
TTITLE1=Βαρκαρόλα
TTITLE2=Ο Μίμης ο τσιγγάνος
TTITLE3=Γελάς
TTITLE4=Η Χιονάτη
TTITLE5=Απο σένα αρχίζουν όλα
TTITLE6=Τσιγγάνικο
TTITLE7=Perfidia
TTITLE8=Flamenco
TTITLE9=Τ' αστέρι του βοριά
TTITLE10=Γκρεμισμένα σπίτια
TTITLE11=Μη μιλάς άλλο γι' αγάπη
TTITLE12=Τα καρφιά
TTITLE13=Με τη σιωπή στην άκρη των ματιών
TTITLE14=Θυμάμαι μονάχα τη θάλασσα
TTITLE15=Δημιουργία
TTITLE16=Κάτι τρέχει
TTITLE17=Όλα ανάποδα τα βλέπει
TTITLE18=Ο Στρατής
TTITLE19=Τρελός ή παλικάρι
TTITLE20=Απ' το αεροπλάνο
TTITLE21=Εμείς οι ταπεινοί
TTITLE22=Παράλληλοι βίοι
TTITLE23=Δεν είμαι ΄γω
TTITLE24=Αντίο
EXTD=YEAR: 1979
EXTT0=
EXTT1=
EXTT2=
EXTT3=
EXTT4=
EXTT5=
EXTT6=
EXTT7=
EXTT8=
EXTT9=
EXTT10=
EXTT11=
EXTT12=
EXTT13=
EXTT14=
EXTT15=
EXTT16=
EXTT17=
EXTT18=
EXTT19=
EXTT20=
EXTT21=
EXTT22=
EXTT23=
EXTT24=
PLAYORDER=
